<svg width="22" height="23" viewBox="0 0 22 23" fill="none" xmlns="http://www.w3.org/2000/svg">
<path d="M19.5694 16.1083V18.8167C19.5704 19.0681 19.52 19.317 19.4215 19.5473C19.3229 19.7777 19.1784 19.9845 18.9972 20.1545C18.8159 20.3244 18.602 20.4538 18.369 20.5344C18.136 20.6149 17.8891 20.6448 17.6442 20.6222C14.9266 20.3204 12.3162 19.3711 10.0228 17.8507C7.88897 16.4646 6.07989 14.6153 4.72399 12.434C3.23148 10.0789 2.30266 7.39742 2.01278 4.60694C1.99071 4.35729 2.01974 4.10568 2.09801 3.86813C2.17627 3.63057 2.30207 3.41228 2.46739 3.22715C2.6327 3.04202 2.83392 2.89411 3.05822 2.79282C3.28252 2.69154 3.525 2.63912 3.77021 2.63888H6.41959C6.84818 2.63457 7.26368 2.78972 7.58864 3.0754C7.91361 3.36109 8.12586 3.75783 8.18585 4.19166C8.29767 5.05839 8.50506 5.9094 8.80404 6.72846C8.92286 7.05159 8.94857 7.40276 8.87814 7.74037C8.8077 8.07798 8.64407 8.38787 8.40663 8.63333L7.28506 9.77985C8.54224 12.04 10.3729 13.9114 12.5838 15.1965L13.7054 14.05C13.9455 13.8073 14.2487 13.64 14.5789 13.568C14.9092 13.496 15.2527 13.5223 15.5688 13.6437C16.37 13.9494 17.2025 14.1614 18.0504 14.2757C18.4794 14.3376 18.8712 14.5584 19.1512 14.8963C19.4313 15.2342 19.5801 15.6656 19.5694 16.1083Z" stroke="#B00000" stroke-width="2" stroke-linecap="round" stroke-linejoin="round"/>
</svg>
